<?xml version="1.0" encoding="utf-8"?>
<!-- Generator: Adobe Illustrator 24.1.2, SVG Export Plug-In . SVG Version: 6.00 Build 0)  -->
<svg version="1.1" id="Layer_1" xmlns="http://www.w3.org/2000/svg" xmlns:xlink="http://www.w3.org/1999/xlink" x="0px" y="0px"
	 viewBox="0 0 147 79.5" style="enable-background:new 0 0 147 79.5;" xml:space="preserve">
<style type="text/css">
	.st0{fill:#0331C0;}
	.st1{fill:#FFFFFF;}
	.st2{fill:#FAFBFC;}
	.st3{fill:#CE0239;}
	.st4{display:none;fill:#FFFFFF;}
	.st5{display:none;fill:#0331C0;}
</style>
<g>
	<circle class="st0" cx="141.2" cy="15.5" r="5.8"/>
	<g>
		<path class="st0" d="M78.8,49.9c0,0-0.6,0-1.2,0.1c-0.8,0.1-1.6,0.3-2.4,0.7c-1,0.5-1.8,1.1-2.6,1.9c-1,1.1-1.7,2.4-1.9,3.9
			c-0.1,0.8-0.1,2.3-0.1,2.3v20.5h7.5v-23h7.9v-6.5H78.8z"/>
		<path class="st0" d="M0,64.5c0-8.6,6.3-15,15.3-15c9,0,15.2,6.3,15.2,15v2.4H7.2c0.9,4.1,4.1,6.3,8.1,6.3c3.1,0,5.3-0.9,6.7-2.7
			h7.3c-2.1,5.4-7.3,8.9-14,8.9C6.3,79.4,0,73.1,0,64.5z M23.3,61.4c-1.1-3.8-4.2-5.7-7.9-5.7c-3.9,0-6.9,2-7.9,5.7H23.3z"/>
		<path class="st0" d="M91.9,67.8V40.9h6.9v9h9.6v6.2h-9.6v11.6c0,3.8,2,5.3,4.8,5.3s4.8-1.4,4.8-5.3V67h6.9v0.7
			c0,7.9-4.7,11.7-11.6,11.7C96.6,79.4,91.9,75.6,91.9,67.8z"/>
		<path class="st0" d="M145.9,57.1c-0.7-2-2-3.7-3.8-4.9c-1.8-1.2-3.9-1.8-6-2c-2-0.2-4-0.2-6,0c-1,0.1-2,0.4-2.9,0.7v-10h-7.5v29.9
			h0c0,4.5,0,8.7,0,8.7h7.5l0-16v-6.4h12.1l0,22.4h7.4c0,0,0-11.3,0-16.9C146.7,60.7,146.5,58.9,145.9,57.1z"/>
		<path class="st0" d="M64.6,64.4c0-8.3-6.8-15.1-15.1-15.1c-8.3,0-15.1,6.8-15.1,15.1s6.8,15.1,15.1,15.1c3.3,0,6.3-1.1,8.8-2.9
			v2.9h6.3V64.4L64.6,64.4z M49.5,72.3c-4.4,0-7.9-3.5-7.9-7.9s3.5-7.9,7.9-7.9s7.9,3.5,7.9,7.9S53.9,72.3,49.5,72.3z"/>
	</g>
	<g>
		<path class="st0" d="M76.9,0.7c0,0-0.6,0-1.2,0.1c-0.8,0.1-1.6,0.3-2.4,0.7c-1,0.5-1.8,1.1-2.6,1.9c-1,1.1-1.7,2.4-1.9,3.9
			c-0.1,0.8-0.1,2.3-0.1,2.3v20.5h7.4V7.2H84V0.7H76.9z"/>
		<path class="st0" d="M62.8,0.7h-7.5l0,22.4H43.3l0-22.4h-7.4c0,0,0,11.3,0,16.9c0,1.9,0.2,3.8,0.8,5.6c0.7,2,2,3.7,3.8,4.9
			c1.8,1.2,3.9,1.8,6,2c2,0.2,4,0.2,6,0c2-0.3,4-0.9,5.7-2c1.8-1.2,3.1-2.8,3.8-4.9c0.6-1.8,0.8-3.7,0.8-5.6
			C62.8,12,62.8,0.7,62.8,0.7"/>
		<path class="st0" d="M29.8,12.9c-0.2-1.6-0.7-3-1.4-4.5c-0.9-1.9-2.3-3.5-3.9-4.9c-1.8-1.5-3.8-2.5-6-3c-1.8-0.4-3.7-0.6-5.5-0.3
			C11.2,0.3,9.6,0.9,8,1.8C7.8,1.9,7.5,2.1,7.3,2.3C7.1,2.4,6.9,2.5,6.7,2.7V0.6H0v41.5h7.4l0-14.4c0,0,1.7,1.4,3,1.8
			c2.3,0.7,4.6,0.8,7,0.4c1.6-0.3,3.2-0.8,4.6-1.6c2.1-1.2,3.9-2.8,5.3-4.7c1.2-1.7,2.1-3.7,2.4-5.8C30,16.2,30,14.5,29.8,12.9z
			 M22,18.1L22,18.1c-0.1,0.2-0.1,0.3-0.2,0.4c-0.1,0.2-0.2,0.4-0.3,0.5c0,0.1-0.1,0.2-0.1,0.2c-0.4,0.6-0.8,1.1-1.3,1.6
			c0,0-0.1,0.1-0.1,0.1c-0.3,0.2-0.5,0.5-0.8,0.7c0,0,0,0,0,0c-0.3,0.2-0.5,0.3-0.8,0.5c-0.1,0.1-0.2,0.1-0.4,0.2
			c-0.2,0.1-0.4,0.2-0.6,0.2c-0.2,0.1-0.3,0.1-0.5,0.2c-0.2,0.1-0.5,0.1-0.7,0.2c-0.1,0-0.2,0-0.3,0c-0.4,0-0.7,0.1-1.1,0.1
			c-0.4,0-0.8,0-1.1-0.1c0,0,0,0,0,0c-2.4-0.4-4.4-1.7-5.6-3.7c0,0,0,0,0-0.1c-0.1-0.2-0.3-0.5-0.4-0.7c0-0.1-0.1-0.1-0.1-0.2v0
			c-0.4-0.9-0.6-2-0.6-3S7,13,7.4,12v-0.1c0.1-0.2,0.2-0.4,0.3-0.6c0,0,0.1-0.1,0.1-0.1c0.1-0.1,0.2-0.3,0.3-0.4
			c1-1.6,2.5-2.7,4.3-3.3c0.1,0,0.2,0,0.3-0.1c0.2-0.1,0.4-0.1,0.6-0.1c0.5-0.1,1-0.2,1.5-0.2c0.5,0,1,0.1,1.5,0.2c0,0,0.1,0,0.1,0
			c0.3,0.1,0.6,0.1,0.8,0.2c0.3,0.1,0.5,0.2,0.8,0.3c0,0,0.1,0,0.1,0.1c1.3,0.6,2.4,1.6,3.2,2.8c0.3,0.4,0.5,0.8,0.7,1.2V12
			c0.4,0.9,0.6,2,0.6,3S22.4,17.2,22,18.1z"/>
		<path class="st0" d="M102.9,30.1c-8.3,0-15.1-6.8-15.1-15.1S94.6,0,102.9,0S118,6.8,118,15.1S111.2,30.1,102.9,30.1z M102.9,7.2
			c-4.4,0-7.9,3.5-7.9,7.9s3.5,7.9,7.9,7.9c4.4,0,7.9-3.5,7.9-7.9S107.3,7.2,102.9,7.2z"/>
	</g>
</g>
</svg>
